<svg xmlns="http://www.w3.org/2000/svg" width="757.569" height="188.183" viewBox="0 0 568.17 141.14" xmlns:v="https://vecta.io/nano"><rect x="178.35" y="285.88" width="122.74" height="122.74" rx="8.79" transform="matrix(.994774 .102098 -.102098 .994774 -134.8 -301.74)" fill="#173a67"/><rect x="178.35" y="285.88" width="122.74" height="122.74" rx="8.79" transform="matrix(.990268 -.139173 .139173 .990268 -217.56 -242.3)" fill="#f59865"/><g fill="#173a67"><path d="M80.97 71.8a3.66 3.66 0 0 0 2.64-.23l.35-.2 16.35-10.24c.828-.4 1.175-1.397.775-2.225s-1.397-1.175-2.225-.775l-18.13 6.6a3.69 3.69 0 0 0 .24 7zm34.5 15.5a38.1 38.1 0 0 0 0-34.28v-.14l-.1-.13a38.3 38.3 0 0 0-5.88-8.45h0l.35.35a1.66 1.66 0 0 0 2.35 0l3.05-3a1.67 1.67 0 0 0 0-2.36l-3.05-3a1.66 1.66 0 0 0-2.35 0l-3 3a1.66 1.66 0 0 0 0 2.35l.35.35a38.29 38.29 0 0 0-4.9-3.81l-.17-.14-.2-.1a38 38 0 0 0-16.59-5.81v-1.46h.88a1.67 1.67 0 1 0 0-3.33h-9.87a1.67 1.67 0 1 0 0 3.33h1v3.15a1.65 1.65 0 0 0 1.74 1.55h.55v2.82a1.67 1.67 0 0 0 3.33 0v-2.84a34.75 34.75 0 0 1 15.84 4.59l-1.53 2.34a1.67 1.67 0 0 0 2.8 1.81l1.53-2.36a35.26 35.26 0 0 1 10 11.12l-2.5 1.27a1.68 1.68 0 0 0-.75 2.25 1.68 1.68 0 0 0 2.25.75h0l2.5-1.26a34.69 34.69 0 0 1 3 12.59h-2.74a1.67 1.67 0 1 0 0 3.34h2.82a34.63 34.63 0 0 1-3 12.66l-2.5-1.27a1.68 1.68 0 0 0-2.25.75 1.68 1.68 0 0 0 .75 2.25l2.5 1.27a35.31 35.31 0 0 1-10.06 11.11l-1.52-2.35a1.671 1.671 0 1 0-2.81 1.81l1.53 2.36a34.88 34.88 0 0 1-15.85 4.69v-2.78a1.67 1.67 0 1 0-3.34 0v2.8h-.5c-.922-.058-1.717.643-1.775 1.565s.643 1.717 1.565 1.775a37.38 37.38 0 0 0 2.38.07 38 38 0 0 0 20.62-6.06l.14-.1.17-.13a38.51 38.51 0 0 0 13.16-14.65l.07-.1a.78.78 0 0 1 .01-.18zm-55.3 28.26c-10.15 0-17-4.12-21.15-12.64-6.8.23-10.78-2.63-13-5.15-4.22-4.8-5.2-12-4.38-17.1a20.59 20.59 0 0 1-4.84-13.32c0-7.17 3-13.47 7.86-16.47v-.73c0-8.43 5.13-15.12 12.6-16.67 2.6-6.33 11.38-12.7 21.35-12.7h10.05a1.86 1.86 0 0 1 1.86 1.86v90.22a1.86 1.86 0 0 1-1.53 1.83 49.39 49.39 0 0 1-8.83.87zm-20-16.43a1.86 1.86 0 0 1 1.7 1.11c4.24 9.63 12 13.07 24.93 11.05V24.5h-8.2c-9.58 0-16.84 6.6-18.2 11.16a1.87 1.87 0 0 1-1.54 1.31c-6.2.82-10.5 6.25-10.5 13.18a13.69 13.69 0 0 0 .09 1.58 1.87 1.87 0 0 1-1 1.87c-4.13 2-6.9 7.54-6.9 13.75 0 4.3 1.78 8.86 4.42 11.37a1.86 1.86 0 0 1 .53 1.75c-1 4.37-.13 10.88 3.35 14.84 2.6 3 6.35 4.25 11.2 3.83z"/><path d="M53.6 51.93c-8.75 0-16.84-2-16.84-16.83h3.7c0 11 4.6 13.12 13.12 13.12zm-9.64 16.44a11.62 11.62 0 0 1-6.35-1.73l2-3.1c3.27 2.15 9 1.2 12-2 2.84-3 5.86-4.5 9-4.5h0c3.18 0 6.3 1.57 9.25 4.66l-2.68 2.57c-2.24-2.33-4.44-3.52-6.57-3.52h0c-2.07 0-4.2 1.13-6.3 3.35a14.64 14.64 0 0 1-10.35 4.28zm19.37-25.4c-5.14 0-9.6-2.6-11.44-7.16l3.44-1.4c1.75 4.32 7.17 6 12.6 3.95l1.32 3.48a16.7 16.7 0 0 1-5.92 1.12zm-4.87 54.4l-3.4-1.44c2-4.6 7.26-8.38 14.23-5.76L68 93.65c-5.04-1.9-8.27.82-9.54 3.72zM43.33 89.4c-4.74-.74-9.06-5.2-9.06-9.32H38c0 2.12 2.73 5.15 5.92 5.65z"/><path d="M42.02 101H38.3c0-11.32 7-22.78 20.3-22.78v3.72c-13.14 0-16.58 12.47-16.58 19.06zm-7.76-26.67l-1.24-3.5a6.19 6.19 0 0 0 3.75-5.73 5.31 5.31 0 0 0-5.63-5.21v-3.72c5.33 0 9.35 3.84 9.35 8.93a9.94 9.94 0 0 1-6.23 9.24z"/></g><g fill="#f59865"><path d="M298.75 104.24c-.24.14-.77-.1-1.1-.53s-.48-.92-.2-1.06c1.78-1 3.55-4.22 4.08-7.34a8 8 0 0 0-.05-3.22 2.51 2.51 0 0 0-1-1.63c-1.15-.77-3.07-1-6.14-.15l-.43.1c-6.44 1.82-13.2 6.82-18.05 12.82s-7.6 12.77-6.15 18.3v.2a4.94 4.94 0 0 0 1.1 2.06c1.25 1.3 3.4 1.64 6.05 1.25a28.78 28.78 0 0 0 9.32-3.36c5.8-3.07 11.37-7.63 14-11.52.15-.24.63-.1 1 .34s.63.86.48 1.1-4.18 6.9-8.78 13.83a6.94 6.94 0 0 1 2.2 4.12c.15.44-.14.63-.52.44a1.92 1.92 0 0 1-1-1.11 3.5 3.5 0 0 0-1.49-2.35c-4.7 7-9.9 14-12.2 14.54-1.16.3-1.83-.24-2.16-1.48s1.3-4.66 3.7-7.88 5.43-6.24 8-6.9a4.08 4.08 0 0 1 1.49-.14l4.17-6.4a52.18 52.18 0 0 1-7.68 5 30.65 30.65 0 0 1-9.5 3.41c-3.12.43-5.9-.14-7.83-2.16a8.18 8.18 0 0 1-1.92-3.45l-.1-.24c-1.54-5.9 1.34-13 6.24-19.1s11.76-11.1 18.3-13l.43-.1c3.4-.9 5.8-.57 7.4.53a6 6 0 0 1 2.45 3.55 9.78 9.78 0 0 1 .1 3.75c-.4 3.34-2.33 6.75-4.2 7.8zm-19.2 34.85c2.26-1.44 6.2-6.63 10-12.24-2.2 1.1-4.6 3.64-6.58 6.28a25.24 25.24 0 0 0-3.42 5.96zm27.07-26.16c.14-.24.62-.1 1 .28s.63.92.48 1.16l-1.77 2.83c1.68-.82 4-1.6 4.94-.38.43.47.3 1.58.9 1.63a11.66 11.66 0 0 0 3.56-.53c.28-.1.57-.34.86.1s.15.63-.14.68a16.68 16.68 0 0 1-4.71.81c-1.25-.1-1.63-.43-2.7-1.68-.72-.86-5 2.93-5 2.93l-2.83 4.7c-.14.24-.62.1-1-.3s-.62-.9-.48-1.16z"/><path d="M317.5 115.6c.2-.14.67.05 1.06.48s.48.92.3 1.1a2.63 2.63 0 0 0-.39.28 9.88 9.88 0 0 0-2.35 3.89 5.19 5.19 0 0 0-.34 2.88 1.43 1.43 0 0 0 .92 0 3.72 3.72 0 0 0 1.44-.91 8.58 8.58 0 0 0 1.87-2.54 11 11 0 0 0 .77-2 6.9 6.9 0 0 1-1.88-2.45 5.29 5.29 0 0 1-.48-2.35c.1-.67.4-1.15 1-1.25a2.07 2.07 0 0 1 1.2.24 3.49 3.49 0 0 1 1.49 1.63 5.28 5.28 0 0 1 .53 1.73 7.17 7.17 0 0 1 0 2.07 6.09 6.09 0 0 0 4.32-.58c.24-.15.48-.34.86.1s.3.77.05.92c-2.25 1.25-3.93 1.44-5.42.9a8.5 8.5 0 0 1-.91 2.4 9.52 9.52 0 0 1-2 2.69 4.93 4.93 0 0 1-1.63 1 2.36 2.36 0 0 1-1.88-.2 3.73 3.73 0 0 1-1-.76l-.28-.3c-.77-1.1-.73-2.88-.2-4.56a10.09 10.09 0 0 1 2.5-4.13c.17-.06.32-.2.46-.3zm3.5 2.07a8.65 8.65 0 0 0 0-2.16 4.67 4.67 0 0 0-.24-1.06h0-.33c-.14 0-.43.3-.48.72a2.93 2.93 0 0 0 .29 1.49 2.42 2.42 0 0 0 .76 1.01z"/><path d="M326.77 118.4c-.24-.3-.28-.63-.14-.77a38.94 38.94 0 0 1 3.07-3.6c.15-.2.63-.05 1 .38s.58.9.43 1.1c-.05 0-5.9 7.3-4.75 8 1.73 1.16 5.95-6.1 6.43-6.86l.05-.1c.14-.24.58-.14 1 .24s.62.9.48 1.15c0 0-2.5 4.52-1.58 5.14.67.43 1.58-.05 2.92-1.5a39.23 39.23 0 0 0 4.32-6 15.61 15.61 0 0 1 1.2-1.92c.2-.2.63-.1 1 .3s.63.9.48 1.15v.05l-2.35 3.65c-.1.34-.14.57 0 .67 1.25.77 4.37-1.1 5.23-2 .2-.2.43-.3.82.1s.3.62.1.82c-1.53 1.68-3.4 4-6 2.44a4.82 4.82 0 0 1-.92-.86 27.13 27.13 0 0 1-2.4 3.07c-1.63 1.73-3 2.2-4.4 1.3a3.25 3.25 0 0 1-1.3-2.21c-1.58 2-3.55 3.65-5 2.7-1.87-1.16-.98-4 .33-6.44zm42.3-1.25c.2.48 0 .77-.33.67a1.87 1.87 0 0 1-1.06-1c-1-.9-3.3.2-4.18.9a9.39 9.39 0 0 0-3.31 5.38c1.68-.48 6-5.57 6-5.57.2-.2.62 0 1.06.38s.52.82.38 1.06a4.84 4.84 0 0 0-.38 2.83c.2 1.16 6.43-4.08 6.52-4.13a.63.63 0 0 1 1 0c.4.43.34.8.15 1l-6.34 5.18c-2.2 1.15-3.9.48-3.84-1.87-1.73 1.63-3.5 3.12-4.56 2.64a2.92 2.92 0 0 1-1-.72 2.63 2.63 0 0 1-.57-2 5.3 5.3 0 0 1 .52-1.82 11.31 11.31 0 0 1 3-3.84c2.2-1.8 6.13-1.88 6.94.9zm21.64-1.87c.14-.24.62-.15 1 .24s.62.9.48 1.15l-1.2 2.16c2.6-2.16 5.42-4.27 6.48-4h.1a1.79 1.79 0 0 1 1.35 2.54 14.12 14.12 0 0 1-.82 1.87l-1.34 2.64c1.53 1 6.72-3.55 6.77-3.55.14-.2.67-.82 1-.4s.15.5 0 .73c0 0-5.23 6.2-7.73 4.56-2.16-1.4-1.1-3.5-.2-5.38l.53-1.15c-2.73 1.44-9.12 7.53-9.3 7.73s-.58 0-1-.3-.63-.9-.48-1.15z"/><path d="M408.85 118.45a15.15 15.15 0 0 1-4.94 1.43c-3.27 7 9.7 1.06 11.18-1.63a.68.68 0 0 1 1.06-.24c.38.4.38.58.24.87-1.35 2.35-8.83 7.53-12.15 5.66a4.47 4.47 0 0 1-2.25-4.7 8.08 8.08 0 0 1 1.92-3.55 21.1 21.1 0 0 1 3.12-2.84 6.52 6.52 0 0 1 3.21-1.44 2.19 2.19 0 0 1 1.16.72 2.05 2.05 0 0 1 .57 1.73 4.18 4.18 0 0 1-.48 1.34 6.41 6.41 0 0 1-2.64 2.65zm-3.4-.77a17.35 17.35 0 0 0 2.16-.82 6.48 6.48 0 0 0 2.4-2.45c.1-.2.15-.33.24-.53a12.06 12.06 0 0 0-1.87 1.16 18.85 18.85 0 0 0-2.91 2.64z"/><path d="M415.04 118.4c-.24-.3-.3-.63-.14-.77a38.94 38.94 0 0 1 3.07-3.6c.15-.2.63-.05 1 .38s.58.9.43 1.1c-.05 0-5.9 7.3-4.75 8 1.73 1.16 5.95-6.1 6.43-6.86v-.1c.14-.24.58-.14 1 .24s.62.9.48 1.15c0 0-2.5 4.52-1.6 5.14.68.43 1.6-.05 2.93-1.5a39.93 39.93 0 0 0 4.32-6 15.61 15.61 0 0 1 1.2-1.92c.2-.2.63-.1 1 .3s.63.9.48 1.15v.05l-2.35 3.65c-.1.34-.15.57 0 .67 1.25.77 4.37-1.1 5.23-2 .2-.2.43-.3.82.1s.28.62.1.82c-1.53 1.68-3.4 4-6 2.44a5.06 5.06 0 0 1-.91-.86 27.13 27.13 0 0 1-2.4 3.07c-1.63 1.73-3 2.2-4.4 1.3a3.22 3.22 0 0 1-1.3-2.21c-1.58 2-3.55 3.65-5 2.7-1.83-1.16-.97-4 .37-6.44zm59.52 9.02a1.68 1.68 0 0 1 1.11.91c.24.44.2.77-.2.77-10.18-.86-17.67-.67-23.1.1-3.22 5.42-6.82 10.66-8.45 10.66a6 6 0 0 1-5.09-2.93 4 4 0 0 1-.39-3.12 6 6 0 0 1 2.36-2.84c2-1.4 5.23-2.64 10.22-3.4 1.06-1.78 2.74-4.85 3.65-6.48-1.5 1.53-4.56 3-5.62 2.73-1.72-.38-2.06-1.2-1.77-2.7.62-3.3 5.85-7.68 8.93-3.9 1.05-1.24 1.77-2.2 1.77-2.2.15-.24.58-.1 1 .24a1.3 1.3 0 0 1 .53 1.15l-.53.9c0 .05-2.45 4.75-5.38 9.9a109.47 109.47 0 0 1 20.94.19zm-24.72 2.2a20.7 20.7 0 0 0-7.68 2.93 5.43 5.43 0 0 0-2.16 2.54 2.43 2.43 0 0 0 .1 1.87 3.48 3.48 0 0 0 2.83 1.21c1.3 0 4.13-3.94 6.9-8.55zm5.7-11.57c-2.16-2.83-8.5 4.6-6.1 4.75 1.3.12 4.9-2.25 6.1-4.75zm11.1.4a15.15 15.15 0 0 1-4.94 1.43c-3.27 7 9.7 1.06 11.18-1.63a.68.68 0 0 1 1.06-.24c.38.4.38.58.24.87-1.34 2.35-8.83 7.53-12.15 5.66a4.47 4.47 0 0 1-2.25-4.7 8.08 8.08 0 0 1 1.92-3.55 21.1 21.1 0 0 1 3.12-2.84 6.52 6.52 0 0 1 3.21-1.44 2.19 2.19 0 0 1 1.16.72 2.05 2.05 0 0 1 .57 1.73 4.18 4.18 0 0 1-.48 1.34 6.41 6.41 0 0 1-2.64 2.65zm-3.4-.77a17.35 17.35 0 0 0 2.16-.82 6.48 6.48 0 0 0 2.4-2.45c.1-.2.15-.33.24-.53a12.06 12.06 0 0 0-1.87 1.16 18.85 18.85 0 0 0-2.93 2.64z"/><path d="M474.46 115.28c.14-.24.62-.15 1 .24s.62.9.48 1.15l-1.2 2.16c2.6-2.16 5.42-4.27 6.48-4h.1a1.79 1.79 0 0 1 1.35 2.54 14.12 14.12 0 0 1-.82 1.87l-1.38 2.7c1.53 1 6.72-3.55 6.76-3.55.15-.2.68-.82 1.06-.4s.14.5-.05.73c0 0-5.23 6.2-7.73 4.56-2.16-1.4-1.1-3.5-.2-5.38l.53-1.15c-2.74 1.44-9.12 7.53-9.3 7.73s-.58 0-1-.3-.63-.9-.48-1.15z"/><path d="M492.56 118.45a15.15 15.15 0 0 1-4.94 1.43c-3.27 7 9.7 1.06 11.18-1.63a.68.68 0 0 1 1.06-.24c.38.4.38.58.24.87-1.35 2.35-8.83 7.53-12.15 5.66a4.47 4.47 0 0 1-2.25-4.7 8.08 8.08 0 0 1 1.92-3.55 21.1 21.1 0 0 1 3.12-2.84 6.52 6.52 0 0 1 3.21-1.44 2.19 2.19 0 0 1 1.16.72 2.05 2.05 0 0 1 .57 1.73 4.18 4.18 0 0 1-.48 1.34 6.41 6.41 0 0 1-2.64 2.65zm-3.4-.77a17.35 17.35 0 0 0 2.16-.82 6.48 6.48 0 0 0 2.4-2.45c.1-.2.15-.33.24-.53a12.06 12.06 0 0 0-1.87 1.16 18.85 18.85 0 0 0-2.93 2.64z"/><path d="M501.83 112.93c.14-.24.62-.1 1 .28s.63.92.48 1.16l-1.77 2.83c1.68-.82 4-1.6 4.94-.38.43.47.3 1.58.9 1.63a11.66 11.66 0 0 0 3.56-.53c.28-.1.57-.34.86.1s.14.63-.14.68a16.68 16.68 0 0 1-4.71.81c-1.25-.1-1.63-.43-2.7-1.68-.72-.86-5 2.93-5 2.93l-2.83 4.7c-.15.24-.62.1-1-.3s-.62-.9-.48-1.16z"/><path d="M519 117.15c.2.48.05.77-.34.67a1.88 1.88 0 0 1-1.05-1c-1-.9-3.32.2-4.18.9a9.39 9.39 0 0 0-3.31 5.38c1.68-.48 6.05-5.57 6.05-5.57.2-.2.62 0 1 .38s.53.82.4 1.06a4.9 4.9 0 0 0-.39 2.83c.2 1.16 6.44-4.08 6.53-4.13a.63.63 0 0 1 1 0c.4.43.34.8.15 1l-6.34 5.18c-2.2 1.15-3.9.48-3.84-1.87-1.73 1.63-3.5 3.12-4.56 2.64a2.92 2.92 0 0 1-1-.72 2.68 2.68 0 0 1-.58-2 5.56 5.56 0 0 1 .53-1.82 11.31 11.31 0 0 1 3-3.84c2.2-1.8 6.12-1.88 6.94.9z"/><path d="M537.06 96.46c.14-.2.62-.1 1 .33s.57.92.43 1.1a386.74 386.74 0 0 0-7.25 10.51h12.22a1.61 1.61 0 0 1 1.1.82c.3.48.24.86-.1.86h-14.33l-3 4.66v.05c0 .2-.1.28-.2.28-2.93 4.76-4.52 7.5-4 8.45.87 1.64 10.6-6.14 10.6-6.2.2-.14.48-.24.86.2a.48.48 0 0 1-.09.82c0 .05-10.95 10.8-13.3 6.48-.72-1.34 1.5-5.95 4.56-11l.3-.53c.1-3.65-12.2-3.17-12.2-3.17a1.56 1.56 0 0 1-1.11-.86c-.28-.43-.24-.82.1-.82h16.22c4.08-6.33 8.1-11.94 8.16-12zm-10.6 15.94l1.44-2.3-6-.24c1.43.58 3.78 1.54 4.56 2.55z"/><path d="M536.58 114.22c.24-.2.72 0 1.1.43s.53.9.3 1.1a19.22 19.22 0 0 0-3.84 5c-.67 1.34-.63 2.1-.15 2.35 2 .3 7.3-4.9 7.3-4.94.2-.2.53-.58.9-.15s.24.58 0 .77c0 0-8 8.64-10.08 5-.67-1.2-.34-2.83.48-4.46a18.7 18.7 0 0 1 3.99-5.11zm3-1.4c-.2.24-.67.05-1.05-.34s-.58-.9-.4-1.15l2.7-3.07c.2-.24.62 0 1.06.33s.52.92.38 1.16z"/><path d="M543.06 115.6c.2-.14.67.05 1 .48s.48.92.3 1.1a2.5 2.5 0 0 0-.38.28 9.89 9.89 0 0 0-2.36 3.89 5.16 5.16 0 0 0-.33 2.88 1.4 1.4 0 0 0 .91 0 3.72 3.72 0 0 0 1.44-.91 8.41 8.41 0 0 0 1.87-2.54 9.7 9.7 0 0 0 .77-2 6.86 6.86 0 0 1-1.87-2.45 5 5 0 0 1-.48-2.35c.1-.67.38-1.15 1-1.25a2.1 2.1 0 0 1 1.2.24 3.59 3.59 0 0 1 1.49 1.63 5.27 5.27 0 0 1 .52 1.73 7.17 7.17 0 0 1 0 2.07 6.09 6.09 0 0 0 4.32-.58c.25-.15.5-.34.87.1s.3.77 0 .92c-2.26 1.25-3.94 1.44-5.43.9a8.5 8.5 0 0 1-.91 2.4 9.52 9.52 0 0 1-2 2.69 4.74 4.74 0 0 1-1.63 1 2.33 2.33 0 0 1-1.87-.2 3.57 3.57 0 0 1-1-.76l-.3-.3c-.77-1.1-.72-2.88-.2-4.56a10.19 10.19 0 0 1 2.49-4.13c.28-.06.42-.2.57-.3zm3.5 2.07a7.79 7.79 0 0 0 0-2.16 4.19 4.19 0 0 0-.24-1.06h0a.39.39 0 0 0-.34 0c-.3 0-.43.3-.48.72a2.93 2.93 0 0 0 .29 1.49 2.42 2.42 0 0 0 .77 1.01z"/><path d="M553.9 115.28c.15-.24.63-.15 1 .24s.63.9.48 1.15l-1.2 2.16c2.6-2.16 5.43-4.27 6.48-4h.1a1.78 1.78 0 0 1 1.34 2.54 13.91 13.91 0 0 1-.81 1.87l-1.35 2.64c1.54 1 6.72-3.55 6.77-3.55.15-.2.67-.82 1.06-.4s.14.5-.05.73c0 0-5.23 6.2-7.73 4.56-2.16-1.4-1.1-3.5-.2-5.38l.53-1.15c-2.74 1.44-9.12 7.53-9.32 7.73s-.57 0-1-.3-.62-.9-.48-1.15z"/></g><path d="M187.22 55.05h-8.64V74.3h-10.84V21.7h19.55q9.32 0 14.38 4.16 5.06 4.16 5.06 11.74a16.23 16.23 0 0 1-2.33 9 15.92 15.92 0 0 1-7.06 5.73l11.38 21.5v.5h-11.64zm-8.64-8.78h8.75a8.92 8.92 0 0 0 6.32-2.08 7.42 7.42 0 0 0 2.24-5.72 8 8 0 0 0-2.11-5.86c-1.4-1.42-3.58-2.13-6.5-2.13h-8.7zm53.7 28.76q-8.6 0-14-5.27-5.4-5.27-5.4-14.06v-1a23.58 23.58 0 0 1 2.28-10.53 16.76 16.76 0 0 1 6.45-7.16 18.12 18.12 0 0 1 9.52-2.51q8 0 12.63 5.06 4.63 5.06 4.6 14.35v4.26h-24.9a9.7 9.7 0 0 0 3.05 6.14 9.24 9.24 0 0 0 6.45 2.31 11.25 11.25 0 0 0 9.43-4.37l5.13 5.75a15.63 15.63 0 0 1-6.36 5.18 20.83 20.83 0 0 1-8.88 1.85zm-1.2-32.1a6.51 6.51 0 0 0-5 2.11 10.86 10.86 0 0 0-2.47 6h14.52v-.83a7.74 7.74 0 0 0-1.88-5.39 6.72 6.72 0 0 0-5.17-1.89zm35.2 23h19.1v8.42h-32.45v-6.42l18.4-24.32h-17.87v-8.4h31.32v6.15zm25.58-40.83a5.13 5.13 0 0 1 1.6-3.87 6.77 6.77 0 0 1 8.55 0 5.52 5.52 0 0 1 0 7.77 6.69 6.69 0 0 1-8.49 0 5.09 5.09 0 0 1-1.66-3.9zm11.1 49.2h-10.5V35.2h10.48zm40.94-22.8h-20.8v14.1h24.38v8.7h-35.22V21.7h35.22v8.78H323.1v12.54h20.8zm24.16-4.57l6.58-11.67h11.16L374.67 54.4l11.6 19.94h-11.2l-7-12.28-6.94 12.28h-11.2l11.6-19.94-11.06-19.2h11.2zm57.96 8.2q0 9-4.1 14.48a13.17 13.17 0 0 1-11.08 5.43 12.15 12.15 0 0 1-9.57-4.12v18.43h-10.44V35.22h9.68l.36 3.83a12.27 12.27 0 0 1 9.9-4.56 13.26 13.26 0 0 1 11.24 5.35q4 5.35 4 14.74zm-10.44-.75q0-5.46-1.94-8.42a6.29 6.29 0 0 0-5.62-3c-3.27 0-5.52 1.26-6.75 3.76v16c1.27 2.58 3.55 3.86 6.83 3.86q7.47.04 7.48-12.2zM454.46 45a27.37 27.37 0 0 0-3.76-.29q-5.93 0-7.77 4v25.6h-10.47V35.22h9.86l.3 4.66q3.15-5.38 8.7-5.4a11.05 11.05 0 0 1 3.25.47zm22.34 30.03q-8.6 0-14-5.27-5.4-5.27-5.4-14.06v-1a23.58 23.58 0 0 1 2.28-10.53 16.76 16.76 0 0 1 6.45-7.16 18.12 18.12 0 0 1 9.52-2.51q8 0 12.63 5.06 4.63 5.06 4.6 14.37v4.26h-24.9a9.7 9.7 0 0 0 3 6.14 9.24 9.24 0 0 0 6.45 2.31 11.24 11.24 0 0 0 9.43-4.37l5.13 5.75a15.63 15.63 0 0 1-6.36 5.18 20.83 20.83 0 0 1-8.83 1.83zm-1.2-32.1a6.51 6.51 0 0 0-5 2.11 10.86 10.86 0 0 0-2.47 6h14.52v-.83a7.74 7.74 0 0 0-1.88-5.39 6.72 6.72 0 0 0-5.17-1.89zm44.36 20.57a3.37 3.37 0 0 0-1.89-3 21.89 21.89 0 0 0-6.09-2q-13.95-2.93-13.95-11.85a10.73 10.73 0 0 1 4.32-8.69q4.32-3.5 11.3-3.5 7.44 0 11.9 3.5a11 11 0 0 1 4.46 9.1h-10.44a5.07 5.07 0 0 0-1.45-3.7 6.1 6.1 0 0 0-4.52-1.46 6.22 6.22 0 0 0-4.08 1.19 3.76 3.76 0 0 0-1.44 3 3.2 3.2 0 0 0 1.64 2.8 17 17 0 0 0 5.55 1.85 44.25 44.25 0 0 1 6.57 1.75q8.28 3 8.28 10.5a10.21 10.21 0 0 1-4.59 8.66q-4.6 3.3-11.85 3.3a20.65 20.65 0 0 1-8.73-1.75 14.73 14.73 0 0 1-6-4.8 11.23 11.23 0 0 1-2.17-6.6h9.9a5.49 5.49 0 0 0 2.06 4.27 8.23 8.23 0 0 0 5.13 1.48 7.58 7.58 0 0 0 4.54-1.14 3.54 3.54 0 0 0 1.55-2.94zm38.04 0a3.37 3.37 0 0 0-1.89-3 21.89 21.89 0 0 0-6.09-2q-14-2.93-14-11.85a10.73 10.73 0 0 1 4.32-8.69q4.32-3.5 11.3-3.5 7.44 0 11.9 3.5a11 11 0 0 1 4.46 9.1h-10.4a5.07 5.07 0 0 0-1.45-3.7 6.1 6.1 0 0 0-4.52-1.46 6.2 6.2 0 0 0-4.08 1.19 3.76 3.76 0 0 0-1.44 3 3.2 3.2 0 0 0 1.64 2.8 16.94 16.94 0 0 0 5.55 1.85 44.25 44.25 0 0 1 6.57 1.75q8.28 3 8.28 10.5a10.21 10.21 0 0 1-4.59 8.66Q559 75 551.73 75a20.65 20.65 0 0 1-8.73-1.75 14.66 14.66 0 0 1-6-4.8 11.16 11.16 0 0 1-2.17-6.6h9.9a5.46 5.46 0 0 0 2.06 4.27 8.23 8.23 0 0 0 5.13 1.48 7.58 7.58 0 0 0 4.54-1.14 3.54 3.54 0 0 0 1.55-2.94z" fill="#173a67"/></svg>